<svg xmlns="http://www.w3.org/2000/svg" viewBox="0 0 512 512" width="512" height="512">
  <!-- 透明背景 -->
  
  <!-- 身体 -->
  <ellipse cx="256" cy="360" rx="100" ry="90" fill="#FFFFFF" stroke="#E8E8E8" stroke-width="4"/>
  
  <!-- 头 -->
  <circle cx="256" cy="210" r="120" fill="#FFFFFF" stroke="#E8E8E8" stroke-width="4"/>
  
  <!-- 左耳 (立耳) -->
  <path d="M150 140 L130 50 L190 100 Z" fill="#FFFFFF" stroke="#E8E8E8" stroke-width="3"/>
  <path d="M150 140 L145 80 L180 110 Z" fill="#F8F8F8"/>
  
  <!-- 右耳 (立耳) -->
  <path d="M362 140 L382 50 L322 100 Z" fill="#FFFFFF" stroke="#E8E8E8" stroke-width="3"/>
  <path d="M362 140 L367 80 L332 110 Z" fill="#F8F8F8"/>
  
  <!-- 眼睛 -->
  <circle cx="190" cy="180" r="25" fill="#333333"/>
                  <circle cx="198" cy="172" r="8" fill="#FFFFFF"/>
  <ellipse cx="322" cy="180" rx="10" ry="25" fill="#333333"/>
                       <circle cx="322" cy="172" r="5" fill="#FFFFFF"/>
  
  <!-- 眉毛 (增加表情) -->
  <path d="M160 150 Q180 140 200 155" stroke="#CCCCCC" stroke-width="3" fill="none"/>
  <path d="M312 155 Q332 140 352 150" stroke="#CCCCCC" stroke-width="3" fill="none"/>
  
  <!-- 鼻子 -->
  <ellipse cx="256" cy="235" rx="35" ry="25" fill="#1a1a1a"/>
  <ellipse cx="248" cy="228" rx="10" ry="6" fill="#555555"/>
  
  <!-- 嘴巴 -->
  <path d="M220 260 Q256 290 292 260" fill="none" stroke="#333333" stroke-width="4" stroke-linecap="round"/>
                   <ellipse cx="256" cy="275" rx="25" ry="15" fill="#FF9999"/>
  
  <!-- 腮红 -->
  <ellipse cx="170" cy="250" rx="25" ry="15" fill="#FFB6C1" opacity="0.6"/>
  <ellipse cx="342" cy="250" rx="25" ry="15" fill="#FFB6C1" opacity="0.6"/>
  
  <!-- 斑点装饰 -->
  <ellipse cx="200" cy="380" rx="20" ry="15" fill="#F5F5F5"/>
  <ellipse cx="312" cy="380" rx="20" ry="15" fill="#F5F5F5"/>
  
  
</svg>